/vscmnt/brussel_pixiu_data/_data_brussel/112/vsc11236/PredSimResults/SUBJ09opt3D/weighted-LRposFixed/trackIG/worker_04.mot
version=1
nRows=11
nColumns=50
inDegrees=yes
endheader
                time	         pelvis_tilt	         pelvis_list	     pelvis_rotation	           pelvis_tx	           pelvis_ty	           pelvis_tz	       hip_flexion_r	     hip_adduction_r	      hip_rotation_r	        knee_angle_r	       ankle_angle_r	         mtp_angle_r	       hip_flexion_l	     hip_adduction_l	      hip_rotation_l	        knee_angle_l	       ankle_angle_l	         mtp_angle_l	    lumbar_extension	      lumbar_bending	     lumbar_rotation	 ercspn_r/activation	 intobl_r/activation	 extobl_r/activation	    abd_r/activation	    add_r/activation	hamstrings_r/activation	bifemsh_r/activation	glut_max_r/activation	iliopsoas_r/activation	rect_fem_r/activation	  vasti_r/activation	gastroc_r/activation	 soleus_r/activation	tib_ant_r/activation	 ercspn_l/activation	 intobl_l/activation	 extobl_l/activation	    abd_l/activation	    add_l/activation	hamstrings_l/activation	bifemsh_l/activation	glut_max_l/activation	iliopsoas_l/activation	rect_fem_l/activation	  vasti_l/activation	gastroc_l/activation	 soleus_l/activation	tib_ant_l/activation	
          1.33560986	         -3.87330702	         -1.42072746	          7.96900877	          1.49588305	          0.99413587	         -0.00174417	         23.96885203	         -0.06066603	         -5.93061970	          2.24032411	          2.70918836	          0.23092343	        -11.62218917	         -2.89932029	         -4.31370070	        -12.26054663	          5.08828870	         36.52590265	        -12.32113264	         -1.26281596	        -11.17345870	          0.03756061	          0.21383254	          0.04721232	          0.00999999	          0.26523524	          0.06178986	          0.00999999	          0.00999999	          0.09394649	          0.02342383	          0.03174224	          0.00999999	          0.00999999	          0.32823575	          0.00999999	          0.00999999	          0.00999999	          0.05034451	          0.00999999	          0.01219186	          0.27805024	          0.01827488	          0.00999999	          0.00999999	          0.00999999	          0.31519581	          0.25884431	          0.01222600	
          1.34896596	         -3.94077751	         -1.62208058	          7.93933386	          1.51611496	          0.99196322	         -0.00073700	         23.57891406	          0.35020210	         -6.27412473	          1.34296383	          1.94191485	          0.23609706	        -12.15750106	         -3.34163169	         -4.88538389	        -13.17523389	          4.03855674	         38.26186561	        -11.66927063	         -0.69622084	        -11.36632499	          0.03072187	          0.17489960	          0.03861627	          0.00999999	          0.21694330	          0.06595670	          0.00999999	          0.05144072	          0.07684146	          0.01915901	          0.06503842	          0.01494753	          0.01494753	          0.34551585	          0.00999999	          0.00999999	          0.00999999	          0.04117818	          0.00999999	          0.03394870	          0.26089375	          0.01494753	          0.00999999	          0.00999999	          0.00999999	          0.28854151	          0.23621218	          0.00999999	
          1.36232206	         -3.98306237	         -1.88085729	          7.87246013	          1.53671962	          0.99000139	          0.00026853	         23.05564385	          0.77577878	         -6.60183263	          0.40999679	          1.16906379	          0.21823301	        -12.53679954	         -3.86173573	         -5.49423753	        -14.43253267	          2.84775662	         39.97535108	        -10.99313098	         -0.04662177	        -11.49387552	          0.02512828	          0.14305527	          0.03158533	          0.08337399	          0.17744398	          0.07217825	          0.01222600	          0.05942171	          0.06285077	          0.01567069	          0.05319674	          0.01222600	          0.01222600	          0.41906964	          0.00999999	          0.00999999	          0.00999999	          0.03368078	          0.00999999	          0.03758609	          0.22948096	          0.01222600	          0.02576792	          0.00999999	          0.00999999	          0.24839230	          0.20589284	          0.00999999	
          1.37567816	         -4.00653791	         -2.17267582	          7.76769010	          1.55732185	          0.98854336	          0.00135170	         22.40722206	          1.24840955	         -6.99397607	         -0.29100306	          0.24998226	          0.18409359	        -12.65984783	         -4.44437166	         -6.12803952	        -16.14762182	          1.46779280	         41.56444594	        -10.33735539	          0.64779249	        -11.55754017	          0.02055312	          0.11700889	          0.02583452	          0.13807507	          0.14945611	          0.07160411	          0.00999999	          0.07056510	          0.05140740	          0.01281749	          0.04351110	          0.00999999	          0.00999999	          0.46486321	          0.01527935	          0.00999999	          0.00999999	          0.02754845	          0.00999999	          0.05629619	          0.18769888	          0.00999999	          0.05065893	          0.00999999	          0.00999999	          0.20316699	          0.16840550	          0.00999999	
          1.38903426	         -4.01539876	         -2.48780197	          7.63385932	          1.57754142	          0.98783190	          0.00251567	         21.73504751	          1.75301676	         -7.38977871	         -0.99332130	         -0.35378252	          0.14311851	        -12.44012253	         -5.09113414	         -6.77513269	        -18.41719997	         -0.08262668	         42.79241097	         -9.74360749	          1.37452340	        -11.56322902	          0.01681097	          0.09570484	          0.02113077	          0.19799064	          0.12224433	          0.06963243	          0.00999999	          0.09386914	          0.04204755	          0.01048378	          0.04563849	          0.00999999	          0.00999999	          0.48140451	          0.08047223	          0.00999999	          0.00999999	          0.02253265	          0.01486244	          0.07131090	          0.15352415	          0.00999999	          0.04143536	          0.00999999	          0.00999999	          0.16617595	          0.13774356	          0.00999999	
          1.40239036	         -4.01434045	         -2.81199842	          7.48069609	          1.59707251	          0.98810032	          0.00374224	         21.07046725	          2.27378584	         -7.70878710	         -1.72827407	         -0.55117082	          0.10629579	        -11.82272983	         -5.79726309	         -7.45322981	        -21.28409664	         -1.73193657	         43.25361932	         -9.24078703	          2.11455069	        -11.51872471	          0.01769977	          0.07827966	          0.01728345	          0.21581339	          0.13557897	          0.07130206	          0.00999999	          0.12435396	          0.03439186	          0.00999999	          0.08253202	          0.00999999	          0.00999999	          0.46158845	          0.07949211	          0.00999999	          0.00999999	          0.01843008	          0.08375183	          0.07400680	          0.12557169	          0.00999999	          0.08396340	          0.00999999	          0.00999999	          0.13591995	          0.11266430	          0.00999999	
          1.41574646	         -4.00694839	         -3.09465385	          7.30523431	          1.61576130	          0.98943100	          0.00498655	         20.39528978	          2.75868910	         -7.94615978	         -2.44017477	         -0.39966283	          0.08237715	        -10.79007604	         -6.52268617	         -8.18365876	        -24.76899865	         -3.38557871	         42.54751881	         -8.84739373	          2.81218702	        -11.42260839	          0.02048215	          0.06402712	          0.01413662	          0.20986406	          0.13154723	          0.07433235	          0.00999999	          0.12465649	          0.02813006	          0.00999999	          0.09110343	          0.00999999	          0.00999999	          0.42067554	          0.06738891	          0.00999999	          0.00999999	          0.01507448	          0.11243895	          0.07443833	          0.10270859	          0.00999999	          0.07183806	          0.00999999	          0.00999999	          0.11117272	          0.09215127	          0.00999999	
          1.42910255	         -3.99298249	         -3.28999847	          7.10288735	          1.63365598	          0.99165692	          0.00620592	         19.68230237	          3.15935220	         -8.12687042	         -3.07247166	         -0.03621405	          0.07686718	         -9.40595496	         -7.22991941	         -8.95911955	        -28.71270290	         -5.20441568	         40.81973571	         -8.56026189	          3.41765398	        -11.27026888	          0.01675292	          0.05236957	          0.01156273	          0.19203527	          0.13386228	          0.07933954	          0.00999999	          0.12282098	          0.02300836	          0.00999999	          0.09716468	          0.00999999	          0.00999999	          0.37321705	          0.05511927	          0.00999999	          0.00999999	          0.01232984	          0.13749620	          0.07638734	          0.08802631	          0.00999999	          0.05875835	          0.00999999	          0.00999999	          0.09093127	          0.07537310	          0.01839850	
          1.44245865	         -3.96991937	         -3.36564056	          6.86944876	          1.65087884	          0.99449157	          0.00736598	         18.90270470	          3.44307401	         -8.25363957	         -3.57426270	          0.40533253	          0.08787367	         -7.76241668	         -7.88331686	         -9.73046999	        -32.94761996	         -7.09910256	         37.97220204	         -8.36738447	          3.89548413	        -11.05693694	          0.01370268	          0.04283453	          0.01015886	          0.17496867	          0.12600555	          0.08242306	          0.00999999	          0.13235958	          0.01881918	          0.00999999	          0.08159567	          0.00999999	          0.00999999	          0.33180295	          0.04508359	          0.01518811	          0.01000022	          0.01008492	          0.16161353	          0.06524785	          0.07199917	          0.00999999	          0.04806010	          0.00999999	          0.00999999	          0.07437522	          0.06164976	          0.06600554	
          1.45581475	         -3.93560551	         -3.31538218	          6.60539342	          1.66751928	          0.99763518	          0.00842925	         18.04842073	          3.60078291	         -8.31873868	         -3.92702090	          0.81677983	          0.12021759	         -5.94913680	         -8.44432786	        -10.37031982	        -37.34340203	         -8.69683122	         33.75613784	         -8.25733430	          4.23901408	        -10.77934419	          0.01120780	          0.03503556	          0.00999999	          0.14595053	          0.10306345	          0.08090875	          0.00999999	          0.10826060	          0.01539273	          0.00999999	          0.07209967	          0.00999999	          0.00999999	          0.29929530	          0.07911660	          0.04489080	          0.07376387	          0.00999999	          0.13218822	          0.05336804	          0.05889013	          0.00999999	          0.03930969	          0.00999999	          0.00999999	          0.06083357	          0.05042506	          0.17385076	
          1.46917085	         -3.88698774	         -3.16800165	          6.30973317	          1.68359116	          1.00083363	          0.00938203	         17.14950461	          3.65727378	         -8.30052578	         -4.17906462	          1.17191624	          0.17830943	         -4.05543394	         -8.86354812	        -10.78939355	        -41.72577059	         -9.44479640	         28.63501039	         -8.22916361	          4.47438839	        -10.43306633	          0.00999999	          0.02865656	          0.00999999	          0.12175921	          0.08429847	          0.07531709	          0.00999999	          0.09204029	          0.01259015	          0.00999999	          0.07241452	          0.00999999	          0.00999999	          0.27324381	          0.09685223	          0.05538410	          0.11108922	          0.00999999	          0.11271820	          0.04365121	          0.04913151	          0.00999999	          0.03215250	          0.00999999	          0.00999999	          0.04975747	          0.04124406	          0.19980105	
